<svg xmlns="http://www.w3.org/2000/svg" viewBox="0 0 685.06 240.26">
    <g data-name="Слой 2">
        <path d="M89.62 158.55v26.81H54.89l.51-59.91h79.41c19.68.4 24.76-32.39-.37-37.57l-1.44-.56H0v139.79a13.15 13.15 0 0 0 13.15 13.15h160.72l-44.17-81.71Z" style="fill:#009cd1"/>
        <path d="M227.11 0h-214A13.15 13.15 0 0 0 0 13.15v42.76h140.17c45.69 3.84 63.24 61.52 27.43 90.15l-4.45 3.56 49 90.64h14.94a13.15 13.15 0 0 0 13.15-13.15v-214A13.15 13.15 0 0 0 227.11 0Z" style="fill:#ffa700"/>
        <path d="M264.06 9h24v11.09h-9.6v10.49h9v10.53h-9v12.17H289v11.07h-25Zm61.23 0v55.35h-12.61l-7.49-25.16v25.16h-12V9h12l8.07 24.92V9ZM364 41.42q0 8.34-.39 11.81a13.22 13.22 0 0 1-8.1 10.77 20.44 20.44 0 0 1-8.2 1.54 20.84 20.84 0 0 1-8-1.46 13.26 13.26 0 0 1-8.25-10.68 115 115 0 0 1-.41-12V32q0-8.34.39-11.81a13.25 13.25 0 0 1 8.06-10.81 20.45 20.45 0 0 1 8.21-1.53 20.82 20.82 0 0 1 8 1.45 13.3 13.3 0 0 1 8.23 10.7 115.06 115.06 0 0 1 .46 12Zm-14.44-18.19a16.91 16.91 0 0 0-.43-4.94 1.7 1.7 0 0 0-1.76-1.08 2 2 0 0 0-1.72.88c-.4.58-.6 2.29-.6 5.14v25.84a25.58 25.58 0 0 0 .39 6 1.72 1.72 0 0 0 1.83 1.13 1.76 1.76 0 0 0 1.88-1.3 27.59 27.59 0 0 0 .41-6.19ZM403.54 9l-7.33 55.34h-21.86L366 9h15.18q2.64 22.86 3.77 38.7 1.13-16 2.37-28.41l1-10.29Zm26.38 0 8.23 55.34h-14.71l-.77-9.94h-5.15l-.86 9.94h-14.88L409.12 9Zm-7.63 35.6q-1.08-9.41-2.19-23.25-2.19 15.9-2.76 23.25ZM465.72 9v11.09h-8.54v44.26h-14.39V20.09h-8.52V9Zm17.68 0v55.35H469V9Zm38.66 32.42q0 8.34-.39 11.81a13.27 13.27 0 0 1-8 10.75 20.49 20.49 0 0 1-8.21 1.54 20.82 20.82 0 0 1-8-1.46 13.3 13.3 0 0 1-8.26-10.68 117.93 117.93 0 0 1-.41-12V32a117.43 117.43 0 0 1 .4-11.81 13.25 13.25 0 0 1 8-10.76 20.4 20.4 0 0 1 8.2-1.53 20.79 20.79 0 0 1 8 1.45A13.29 13.29 0 0 1 521.65 20a118 118 0 0 1 .41 12Zm-14.39-18.19a16.91 16.91 0 0 0-.43-4.94 1.7 1.7 0 0 0-1.76-1.08 2 2 0 0 0-1.73.88c-.4.58-.59 2.29-.59 5.14v25.84a25.58 25.58 0 0 0 .39 6 1.72 1.72 0 0 0 1.83 1.13 1.77 1.77 0 0 0 1.88-1.3 27.59 27.59 0 0 0 .41-6.19ZM559.56 9v55.35H547l-7.49-25.16v25.16h-12V9h12l8.07 24.92V9ZM297.09 198.43h-14.4v-5a24.58 24.58 0 0 0-.41-6 1.8 1.8 0 0 0-1.94-1.19 1.82 1.82 0 0 0-1.82 1c-.32.69-.47 2.44-.47 5.27v26.56a15.82 15.82 0 0 0 .47 4.9 1.87 1.87 0 0 0 1.92 1.18 2.09 2.09 0 0 0 2.13-1.33 15.46 15.46 0 0 0 .57-5.2v-6.52h-2.91v-8.41h16.86v29.71h-9l-1.33-4a10.12 10.12 0 0 1-3.71 3.85 10.52 10.52 0 0 1-5.29 1.28 13.8 13.8 0 0 1-6.79-1.76 12.92 12.92 0 0 1-4.8-4.36 13.83 13.83 0 0 1-2.06-5.45 66.11 66.11 0 0 1-.41-8.56V198a54.93 54.93 0 0 1 .86-11.52c.57-2.39 2.2-4.59 4.9-6.58s6.2-3 10.48-3a19.55 19.55 0 0 1 10.5 2.6 12.24 12.24 0 0 1 5.43 6.17 32.73 32.73 0 0 1 1.22 10.33Zm5.57-20.38h10.19q10.18 0 13.79.79a9.51 9.51 0 0 1 5.88 4q2.28 3.24 2.27 10.31 0 6.47-1.6 8.68c-1.08 1.49-3.18 2.38-6.33 2.67 2.85.71 4.76 1.65 5.74 2.84a8.45 8.45 0 0 1 1.83 3.26 51.41 51.41 0 0 1 .36 8.19v14.6h-13.36V215c0-3-.24-4.8-.7-5.51s-1.7-1.06-3.68-1.06v25h-14.39Zm14.39 9.47v12.31a6.36 6.36 0 0 0 3.4-.67c.65-.44 1-1.88 1-4.32v-3.05c0-1.75-.32-2.9-.94-3.45a5.36 5.36 0 0 0-3.46-.82Zm56.2 22.94q0 8.34-.39 11.81a13.22 13.22 0 0 1-8.05 10.73 20.28 20.28 0 0 1-8.21 1.54 20.82 20.82 0 0 1-8-1.45 13.3 13.3 0 0 1-8.25-10.69 113.9 113.9 0 0 1-.42-12V201q0-8.34.4-11.81a13.22 13.22 0 0 1 8-10.75 20.27 20.27 0 0 1 8.2-1.54 20.84 20.84 0 0 1 8 1.45 13.3 13.3 0 0 1 8.31 10.65 115.06 115.06 0 0 1 .41 12Zm-14.39-18.19a17 17 0 0 0-.43-4.94 1.69 1.69 0 0 0-1.76-1.07 2 2 0 0 0-1.72.87c-.4.58-.6 2.29-.6 5.14v25.85a25.53 25.53 0 0 0 .39 5.94 1.7 1.7 0 0 0 1.83 1.13 1.76 1.76 0 0 0 1.88-1.3 27.48 27.48 0 0 0 .41-6.18Zm52.47-14.22v37a63.25 63.25 0 0 1-.41 8.84 12 12 0 0 1-2.42 5.23 12.69 12.69 0 0 1-5.32 4.07 20.07 20.07 0 0 1-7.78 1.38 22 22 0 0 1-8.75-1.64 13.21 13.21 0 0 1-5.67-4.27 11.72 11.72 0 0 1-2.22-5.56q-.35-2.93-.35-12.29v-32.76h14.4v41.5a16.45 16.45 0 0 0 .39 4.63 1.53 1.53 0 0 0 1.59 1 1.66 1.66 0 0 0 1.76-1.11 20.86 20.86 0 0 0 .39-5.25v-40.77Zm5.58 0h14.49a34.27 34.27 0 0 1 9 .92 10.19 10.19 0 0 1 4.76 2.67 9.27 9.27 0 0 1 2.15 4.22 38.33 38.33 0 0 1 .56 7.68v4.82c0 3.53-.36 6.11-1.09 7.72a7.51 7.51 0 0 1-4 3.73 18.92 18.92 0 0 1-7.64 1.3h-3.84v22.29h-14.39Zm14.39 9.47v14.08h1.06a3.35 3.35 0 0 0 2.75-1c.51-.65.77-2 .77-4.06V192c0-1.89-.3-3.12-.89-3.69s-1.82-.79-3.69-.79Zm-133.63-69.81h-14.39v-9.62a17 17 0 0 0-.47-5.23 2 2 0 0 0-2-1 2.13 2.13 0 0 0-2.26 1.26 19.32 19.32 0 0 0-.47 5.47v25.71a18 18 0 0 0 .47 5.26 2.05 2.05 0 0 0 2.16 1.23 2 2 0 0 0 2.1-1.23 20.05 20.05 0 0 0 .5-5.79v-7h14.39v2.16q0 8.59-1.22 12.19a12.49 12.49 0 0 1-5.36 6.3 18.42 18.42 0 0 1-10.24 2.7 21.19 21.19 0 0 1-10.43-2.29 11.16 11.16 0 0 1-5.43-6.34q-1.33-4.05-1.34-12.19v-16.17a72.47 72.47 0 0 1 .41-9 12.55 12.55 0 0 1 2.45-5.76 13.52 13.52 0 0 1 5.61-4.37 23.06 23.06 0 0 1 18.78.87 11.8 11.8 0 0 1 5.44 6.13q1.29 3.66 1.3 11.41Zm38.05 8.29q0 8.34-.4 11.81a13.22 13.22 0 0 1-8.05 10.75 20.27 20.27 0 0 1-8.2 1.54 20.94 20.94 0 0 1-8-1.45 13.28 13.28 0 0 1-8.24-10.65 117.66 117.66 0 0 1-.41-12v-9.47q0-8.34.39-11.81A13.22 13.22 0 0 1 310.86 94a20.28 20.28 0 0 1 8.21-1.54 20.82 20.82 0 0 1 8 1.45 13.34 13.34 0 0 1 8.26 10.68 118 118 0 0 1 .41 12Zm-14.4-18.19a17.47 17.47 0 0 0-.42-4.94 1.7 1.7 0 0 0-1.76-1.07 2 2 0 0 0-1.73.87c-.4.58-.6 2.29-.6 5.14v25.85a25.53 25.53 0 0 0 .39 5.94 1.72 1.72 0 0 0 1.83 1.13 1.76 1.76 0 0 0 1.88-1.3 26.86 26.86 0 0 0 .41-6.18Zm51.9-14.2V149H360.6l-7.48-25.16V149h-12V93.61h12l8.06 24.92V93.61Zm36.27 16.75h-13.37v-4.1a8.1 8.1 0 0 0-.51-3.66 1.89 1.89 0 0 0-1.71-.78 2.18 2.18 0 0 0-2 1.06 6.15 6.15 0 0 0-.66 3.21 9.07 9.07 0 0 0 .75 4.17c.47.94 1.83 2.07 4.06 3.39q9.62 5.7 12.11 9.36t2.5 11.79c0 3.95-.47 6.85-1.39 8.72a10.82 10.82 0 0 1-5.35 4.7 21.08 21.08 0 0 1-9.23 1.9 20.6 20.6 0 0 1-9.86-2.19 10.68 10.68 0 0 1-5.35-5.57 28.41 28.41 0 0 1-1.27-9.61v-3.62h13.37v6.73c0 2.08.19 3.41.56 4a2.18 2.18 0 0 0 2 .89 2.33 2.33 0 0 0 2.14-1.13 6.38 6.38 0 0 0 .7-3.35c0-3.25-.44-5.39-1.33-6.39a42.25 42.25 0 0 0-6.74-5 65.28 65.28 0 0 1-7.11-5.17 12.18 12.18 0 0 1-2.89-4.44 19.65 19.65 0 0 1-1.11-7.27c0-4.24.54-7.33 1.62-9.3a10.86 10.86 0 0 1 5.25-4.59 20.86 20.86 0 0 1 8.75-1.66 22.81 22.81 0 0 1 9.58 1.81q3.94 1.81 5.23 4.56t1.28 9.35Zm34.7-16.75v11.08h-8.55V149h-14.39v-44.31h-8.51V93.61Zm3.28 0h10.19q10.18 0 13.79.79a9.51 9.51 0 0 1 5.88 4q2.26 3.24 2.27 10.31 0 6.47-1.6 8.68c-1.08 1.49-3.18 2.37-6.33 2.67 2.85.71 4.76 1.65 5.74 2.84a8.45 8.45 0 0 1 1.83 3.26 51.41 51.41 0 0 1 .36 8.19V149h-13.36v-18.43c0-3-.24-4.8-.7-5.51s-1.7-1.06-3.68-1.06v25h-14.39Zm14.39 9.47v12.31a6.36 6.36 0 0 0 3.4-.67c.65-.44 1-1.88 1-4.32v-3.05c0-1.75-.32-2.9-.94-3.45a5.36 5.36 0 0 0-3.46-.82Zm56.03-9.47v37a64.89 64.89 0 0 1-.41 8.84 12 12 0 0 1-2.43 5.23 12.5 12.5 0 0 1-5.31 4.06 19.88 19.88 0 0 1-7.78 1.39 22 22 0 0 1-8.75-1.64 13.31 13.31 0 0 1-5.68-4.27 11.92 11.92 0 0 1-2.22-5.56q-.35-2.93-.34-12.29V93.61h14.39v41.5a16.45 16.45 0 0 0 .39 4.63 1.55 1.55 0 0 0 1.59 1 1.68 1.68 0 0 0 1.77-1.11 20.86 20.86 0 0 0 .39-5.25V93.61Zm39.18 24.1h-14.4v-9.62c0-2.79-.15-4.54-.46-5.23a2 2 0 0 0-2-1 2.13 2.13 0 0 0-2.26 1.26 19.2 19.2 0 0 0-.48 5.47v25.71a17.85 17.85 0 0 0 .48 5.26 2.05 2.05 0 0 0 2.16 1.23 2 2 0 0 0 2.1-1.23 20.19 20.19 0 0 0 .49-5.79v-7h14.4v2.16q0 8.59-1.22 12.19a12.54 12.54 0 0 1-5.36 6.3 18.42 18.42 0 0 1-10.24 2.7 21.19 21.19 0 0 1-10.43-2.29 11.12 11.12 0 0 1-5.43-6.34q-1.33-4.05-1.34-12.19v-16.17a72.47 72.47 0 0 1 .41-9 12.55 12.55 0 0 1 2.45-5.76 13.52 13.52 0 0 1 5.61-4.37 23.06 23.06 0 0 1 18.78.87 11.8 11.8 0 0 1 5.44 6.13q1.29 3.66 1.3 11.41Zm34.15-24.1v11.08h-8.55V149h-14.39v-44.31h-8.51V93.61Zm17.67 0V149H594.5V93.61ZM647.56 126q0 8.34-.4 11.81a13.22 13.22 0 0 1-8 10.75 20.27 20.27 0 0 1-8.2 1.54 21 21 0 0 1-8-1.45 13.3 13.3 0 0 1-8.29-10.65 117.66 117.66 0 0 1-.41-12v-9.47q0-8.34.39-11.81A13.22 13.22 0 0 1 622.7 94a20.31 20.31 0 0 1 8.21-1.54 20.82 20.82 0 0 1 8 1.45 13.34 13.34 0 0 1 8.26 10.68 118 118 0 0 1 .41 12Zm-14.4-18.19a17.47 17.47 0 0 0-.42-4.94 1.7 1.7 0 0 0-1.76-1.07 2 2 0 0 0-1.73.87c-.4.58-.6 2.29-.6 5.14v25.85a25.53 25.53 0 0 0 .39 5.94 1.72 1.72 0 0 0 1.83 1.13 1.76 1.76 0 0 0 1.88-1.3 26.86 26.86 0 0 0 .41-6.18Zm51.9-14.2V149h-12.62L665 123.8V149h-12V93.61h12l8 24.92V93.61Z" style="fill:#ffa300"/>
    </g>
</svg>
